<?xml version="1.0" standalone="no"?>
<!DOCTYPE svg PUBLIC "-//W3C//DTD SVG 20010904//EN"
 "http://www.w3.org/TR/2001/REC-SVG-20010904/DTD/svg10.dtd">
<svg version="1.0" xmlns="http://www.w3.org/2000/svg"
 width="1500.000000pt" height="464.000000pt" viewBox="0 0 1500.000000 464.000000"
 preserveAspectRatio="xMidYMid meet">
<metadata>
Created by potrace 1.16, written by Peter Selinger 2001-2019
</metadata>
<g transform="translate(0.000000,464.000000) scale(0.100000,-0.100000)"
fill="#000000" stroke="none">
<path d="M0 4440 c0 -127 4 -200 10 -200 6 0 10 4 10 8 0 12 69 12 76 0 4 -6
-1 -8 -14 -4 -14 5 -25 -1 -41 -21 -17 -24 -22 -26 -31 -13 -6 10 -10 -90 -10
-313 0 -259 3 -327 13 -323 6 3 20 9 29 12 10 3 20 14 23 24 3 10 15 20 25 23
25 6 26 -8 2 -22 -14 -9 -15 -12 -3 -20 10 -6 19 -4 28 5 21 20 54 17 60 -5 4
-17 8 -18 25 -8 16 9 22 9 25 0 9 -26 7 -28 -28 -25 -30 3 -37 -1 -47 -23 -17
-38 -15 -44 15 -42 21 2 30 -5 40 -25 9 -18 19 -25 29 -21 11 4 12 9 3 19 -16
20 -2 34 37 34 36 0 42 -7 21 -30 -9 -11 -8 -11 8 0 11 8 24 21 28 28 6 9 18
11 33 8 14 -4 24 -2 24 4 0 5 -4 10 -10 10 -16 0 -11 26 8 42 23 19 128 13
136 -9 5 -13 0 -15 -34 -10 -35 4 -40 3 -40 -15 0 -11 -8 -22 -19 -25 -10 -2
-25 -17 -32 -31 -8 -15 -18 -30 -24 -35 -6 -4 -3 -13 9 -22 19 -14 19 -15 -7
-15 -14 0 -35 10 -47 22 -20 21 -25 16 -21 -20 2 -9 -6 -11 -23 -6 -16 4 -26
2 -26 -5 0 -6 7 -11 16 -11 8 0 12 -5 9 -10 -4 -6 -15 -8 -25 -5 -10 3 -21 1
-25 -5 -9 -14 -38 -12 -71 5 l-29 15 44 -4 43 -4 -28 24 c-16 13 -34 22 -40
19 -6 -2 -17 2 -23 8 -6 6 -11 7 -11 1 0 -5 -14 -11 -30 -12 -17 -1 -30 2 -30
6 0 5 -11 14 -25 20 -30 14 -33 2 -5 -16 26 -16 26 -35 1 -27 -11 3 -22 2 -25
-4 -3 -5 6 -12 20 -15 20 -5 23 -10 15 -20 -6 -7 -7 -17 -3 -21 4 -5 -1 -5
-11 -2 -12 4 -20 1 -24 -10 -4 -9 -1 -19 5 -21 8 -2 8 -8 0 -22 -13 -20 -2
-43 10 -24 9 14 139 26 147 14 3 -5 1 -18 -5 -29 -9 -18 -7 -20 20 -19 17 1
35 -3 40 -8 14 -14 -68 -8 -85 6 -8 7 -12 17 -8 23 4 7 0 8 -11 4 -10 -4 -40
-7 -67 -7 l-49 0 0 -96 c0 -72 3 -95 13 -91 15 5 67 -20 67 -33 0 -14 -33 -13
-47 1 -9 9 -10 6 -6 -11 5 -19 3 -22 -10 -17 -13 5 -17 1 -17 -18 0 -18 5 -25
20 -25 11 0 20 5 20 10 0 6 18 10 40 10 33 0 38 -3 33 -17 -6 -16 8 -16 72 2
16 5 24 -1 38 -29 17 -36 31 -45 42 -26 4 6 15 8 25 5 14 -4 20 3 29 39 14 56
14 56 -3 50 -8 -3 -17 0 -21 6 -5 8 7 10 42 8 37 -2 47 0 45 11 -2 8 3 18 10
22 19 12 -18 12 -40 0 -12 -6 -24 -3 -41 10 -17 14 -19 19 -7 19 9 0 21 8 27
18 15 24 89 18 89 -7 0 -9 6 -23 12 -29 10 -10 10 -15 -2 -22 -12 -8 -9 -10
12 -10 l27 0 -15 -47 c-8 -27 -24 -76 -34 -109 -22 -69 -25 -88 -10 -79 5 3
10 1 10 -4 0 -6 -7 -11 -15 -11 -26 0 -39 -70 -28 -155 5 -42 6 -78 1 -81 -5
-3 -6 -10 -3 -15 4 -5 1 -9 -4 -9 -6 0 -11 4 -11 9 0 5 -23 3 -52 -5 -29 -7
-55 -9 -58 -5 -3 5 -14 10 -24 12 -11 2 -21 10 -24 17 -3 9 3 11 24 6 21 -5
25 -4 19 7 -5 7 -7 35 -6 61 2 41 0 48 -16 48 -13 0 -14 3 -5 8 9 6 -2 30 -44
93 -30 46 -61 89 -67 94 -11 9 -37 59 -37 70 0 3 8 5 18 6 14 0 14 1 -3 8 -11
5 -35 6 -53 4 l-32 -5 0 -1469 0 -1469 718 0 717 0 470 120 c259 66 571 145
695 175 124 30 255 64 291 75 36 11 95 27 130 35 35 8 159 38 275 68 l211 54
7 -60 c3 -33 6 -86 6 -117 l0 -57 148 -86 c81 -47 149 -80 151 -75 5 15 -20
35 -59 46 l-35 10 35 2 35 2 -42 10 c-24 5 -43 13 -43 19 0 5 -11 9 -25 9 -18
0 -25 5 -25 20 0 14 -7 20 -22 20 -13 0 -30 5 -38 10 -17 11 -23 10 85 14 119
4 125 5 125 22 0 14 -10 15 -74 9 -76 -7 -160 1 -151 14 2 5 44 11 92 14 105
7 123 10 126 23 1 5 -46 7 -113 5 -160 -4 -141 9 33 24 44 4 77 11 77 17 0 8
-33 9 -104 5 -123 -8 -153 8 -39 19 43 4 87 8 98 10 11 1 26 3 33 3 6 1 12 6
12 12 0 8 -33 10 -112 6 -108 -6 -111 -5 -63 8 28 7 71 14 97 14 53 1 78 9 78
24 0 6 -29 8 -82 4 -58 -3 -71 -3 -43 3 22 5 57 9 78 9 26 1 37 5 37 16 0 18
-26 19 -100 5 -94 -18 -64 -4 51 24 61 15 117 25 125 22 8 -3 14 -1 14 4 0 6
5 10 11 10 6 0 8 -7 5 -16 -3 -8 -2 -12 3 -9 5 3 12 -18 16 -47 22 -184 23
-187 22 -48 l-2 135 125 32 c108 27 127 29 141 17 9 -8 19 -11 22 -7 4 3 7 2
7 -4 0 -13 58 -35 71 -27 9 5 52 -20 45 -27 -2 -2 13 -4 34 -4 24 -1 53 -11
78 -27 21 -15 59 -32 82 -38 24 -6 54 -19 67 -27 13 -9 23 -11 23 -5 0 16 75
-9 208 -67 62 -27 126 -52 142 -56 16 -3 34 -12 40 -20 6 -8 17 -12 24 -9 8 3
16 -4 19 -16 3 -12 10 -19 15 -16 5 3 57 -19 115 -49 108 -56 134 -65 121 -42
-4 6 6 0 23 -15 16 -16 40 -28 54 -28 36 0 111 -29 127 -48 7 -9 11 -11 7 -4
-3 6 -1 12 4 12 6 0 11 -4 11 -9 0 -5 11 -12 25 -15 14 -4 25 -14 25 -22 0
-14 3 -14 15 -4 8 7 15 8 15 2 0 -5 9 -12 20 -15 11 -3 18 -1 14 4 -9 15 19 9
56 -12 19 -11 27 -18 18 -15 -29 9 -20 -2 15 -18 57 -26 150 -49 217 -52 l65
-4 -50 21 c-27 12 -61 26 -75 32 -14 6 -43 16 -65 23 -93 28 -431 168 -441
183 -8 11 -9 22 -2 34 8 16 7 17 -11 5 -19 -12 -19 -13 -3 -32 16 -18 16 -19
-3 -13 -37 11 -370 149 -381 158 -6 5 -13 6 -16 3 -4 -3 -26 4 -51 15 -25 12
-48 21 -51 21 -3 0 -43 17 -88 39 -46 21 -101 44 -123 51 -75 23 -260 89 -300
106 -22 10 -42 18 -45 19 -19 4 -111 38 -108 40 2 1 113 30 248 64 135 34 313
80 395 101 149 38 580 148 1355 345 805 204 1453 369 1855 471 226 58 428 109
450 114 22 5 173 43 335 85 446 115 911 233 945 239 17 3 85 21 152 38 l122
33 33 -30 c25 -23 28 -24 10 -4 -26 30 -28 39 -7 39 8 0 27 -14 42 -31 16 -18
33 -37 38 -43 6 -6 34 -40 63 -76 28 -36 58 -73 66 -82 8 -9 43 -52 78 -95 35
-42 77 -93 94 -113 18 -19 51 -60 75 -90 46 -58 85 -104 134 -156 60 -63 136
-152 170 -200 11 -15 25 -32 30 -38 6 -6 55 -66 109 -133 53 -68 104 -126 112
-131 8 -5 30 -29 47 -54 28 -39 124 -151 177 -208 22 -23 111 -133 139 -172
21 -29 29 -33 71 -33 41 0 47 2 40 16 -5 9 -16 21 -24 28 -9 8 -13 17 -10 22
3 5 0 9 -7 9 -20 0 -39 33 -27 47 7 9 2 11 -21 8 -30 -3 -43 6 -47 32 -1 7 2
13 7 13 5 0 9 5 9 10 0 6 -9 10 -21 10 -13 0 -18 -4 -13 -12 4 -7 -9 3 -29 21
-40 38 -52 66 -14 35 l22 -19 -19 22 c-10 13 -22 20 -27 18 -4 -3 -36 28 -71
68 -100 117 -210 248 -253 302 -61 77 -254 296 -292 333 -19 18 -36 39 -37 47
-3 19 -37 56 -46 50 -4 -3 -7 3 -6 13 0 9 -5 16 -12 14 -6 -1 -11 2 -10 6 3 8
-49 73 -192 241 -36 42 -102 121 -145 175 -44 55 -90 112 -103 128 -23 28 -22
52 3 46 8 -2 68 -70 135 -153 67 -82 141 -172 164 -199 34 -41 110 -131 121
-144 2 -2 14 2 27 9 21 11 22 11 10 -4 -11 -12 -11 -20 -2 -34 10 -16 11 -16
6 0 -3 9 -2 17 3 17 5 0 12 -16 16 -36 7 -38 31 -71 43 -59 4 3 12 25 17 47
13 52 39 66 31 17 -21 -121 -23 -113 30 -179 27 -33 54 -60 61 -60 7 0 10 -6
8 -12 -10 -30 78 -100 110 -88 11 4 23 6 28 3 4 -2 7 1 7 6 0 6 7 11 15 11 8
0 15 5 15 10 0 6 20 10 45 10 25 0 45 5 45 10 0 6 7 10 15 10 8 0 15 -4 15 -9
0 -10 48 -2 56 10 3 5 24 9 47 9 31 0 38 -3 27 -10 -12 -8 -11 -10 6 -10 12 0
24 7 28 15 3 8 14 15 25 15 13 0 19 -5 15 -14 -3 -8 -1 -17 5 -21 6 -3 14 1
17 10 5 13 9 13 22 3 13 -11 14 -10 3 10 -10 18 -9 22 4 22 9 0 13 -5 10 -11
-5 -7 10 -9 47 -5 116 12 132 18 122 48 -4 15 -2 19 13 17 28 -5 46 10 33 26
-9 11 -17 11 -37 2 -21 -9 -27 -9 -31 1 -2 6 -10 12 -17 12 -7 0 -15 11 -17
25 -4 18 0 26 14 30 10 4 16 11 13 16 -4 5 -1 9 4 9 6 0 11 -9 11 -19 0 -11 5
-23 10 -26 6 -3 10 -1 10 6 0 8 4 9 13 0 10 -8 14 -7 14 4 0 8 -4 15 -8 15 -5
0 -6 7 -3 15 4 10 0 15 -11 15 -9 0 -14 4 -11 9 4 5 0 12 -6 14 -7 3 1 11 20
18 17 8 32 17 32 21 0 4 7 8 15 8 21 0 19 -12 -5 -33 -25 -21 -26 -40 -2 -35
9 2 16 10 14 17 -2 9 3 11 13 7 9 -3 21 -6 27 -6 6 0 8 -7 4 -15 -4 -10 1 -15
15 -15 13 0 19 6 17 18 -2 13 3 16 20 14 18 -1 23 2 20 15 -3 14 -12 18 -45
16 -35 -1 -42 2 -45 21 -4 22 -3 22 23 9 21 -10 33 -11 48 -4 27 15 28 14 27
-12 -1 -17 4 -21 22 -20 12 2 22 -2 22 -7 0 -6 -4 -10 -8 -10 -5 0 -16 -6 -25
-13 -15 -10 -11 -12 28 -12 25 0 45 3 45 7 0 5 12 8 26 8 21 0 24 -3 16 -13
-9 -10 -6 -18 9 -31 12 -9 23 -15 27 -12 3 3 10 2 16 -2 6 -5 22 -5 36 -1 14
4 20 7 14 8 -7 1 -14 10 -17 20 -3 12 -15 21 -33 23 l-28 3 29 19 c16 11 43
21 60 23 16 1 35 9 40 16 20 24 50 33 85 26 21 -5 40 -3 48 3 7 6 15 8 19 4 3
-3 1 -6 -6 -6 -7 0 -9 -5 -6 -10 4 -6 12 -7 18 -3 22 13 77 11 77 -4 0 -20 47
-16 70 7 15 15 16 20 6 20 -8 0 -21 -6 -29 -14 -13 -13 -17 -12 -33 7 -22 25
-25 48 -6 55 6 2 12 -3 12 -11 0 -20 27 -29 34 -11 4 11 11 12 33 3 20 -7 29
-7 31 1 6 16 32 40 45 40 7 0 6 -4 -3 -10 -11 -7 -7 -10 18 -10 47 0 36 -23
-16 -33 -44 -8 -54 -20 -26 -31 23 -9 27 -8 21 8 -6 16 28 17 52 2 7 -5 16 -5
20 0 7 10 76 12 86 2 4 -3 -3 -11 -14 -18 -12 -6 -21 -17 -21 -25 0 -8 -6 -15
-12 -15 -7 0 -5 -5 5 -11 18 -11 24 -39 7 -39 -5 0 -10 -6 -10 -14 0 -13 -18
-14 -70 -1 -24 6 -24 6 -6 -9 19 -15 18 -16 -12 -16 -18 0 -32 4 -32 9 0 5
-12 7 -27 5 -16 -2 -46 -5 -68 -7 -59 -4 -68 -13 -43 -42 12 -14 29 -23 37
-21 9 2 52 7 96 10 59 4 71 3 45 -4 -19 -5 -47 -10 -62 -12 -48 -4 -31 -18 22
-18 28 0 50 -4 50 -9 0 -12 -105 -29 -177 -27 -35 0 -63 -2 -63 -6 0 -5 -15
-8 -32 -8 -25 0 -29 3 -18 10 12 8 11 10 -7 10 -13 0 -23 -4 -23 -10 0 -6 -48
-9 -127 -8 -107 1 -117 3 -63 8 45 4 54 7 30 9 -58 5 -115 0 -118 -10 -2 -5
-8 -9 -13 -9 -6 0 -8 3 -6 8 3 4 -13 7 -36 7 -26 0 -42 -5 -45 -14 -3 -10 1
-12 14 -8 18 7 18 7 0 -8 -12 -9 -39 -14 -75 -13 -55 1 -121 -9 -121 -19 0 -2
10 -13 23 -23 21 -18 21 -19 3 -33 -17 -13 -16 -14 13 -14 17 0 31 5 31 11 0
6 5 4 10 -4 7 -11 10 -12 10 -2 0 16 51 13 62 -3 5 -6 8 -6 8 2 0 6 11 10 25
8 31 -3 40 -11 26 -20 -6 -3 -11 -1 -11 5 0 7 -6 8 -18 1 -11 -6 -54 -13 -98
-16 -43 -3 -91 -8 -106 -11 -16 -3 -28 -1 -28 4 0 14 -35 21 -51 11 -11 -7 -9
-9 6 -10 11 0 14 -3 7 -6 -21 -8 -13 -25 11 -20 12 3 33 -1 47 -8 20 -12 21
-14 7 -15 -21 0 -18 -25 4 -26 19 0 40 16 33 27 -3 5 16 9 43 9 32 0 43 -3 34
-9 -8 -5 -20 -7 -27 -4 -6 2 -15 0 -18 -5 -3 -6 28 -15 72 -21 144 -21 189
-23 211 -12 16 9 21 9 21 0 0 -6 7 -9 15 -5 8 3 15 2 15 -3 0 -9 30 -8 47 2 6
4 14 1 16 -5 4 -10 6 -10 6 0 1 7 16 12 44 12 39 -1 41 -2 23 -15 -27 -20 -11
-19 25 2 27 16 29 16 47 -4 14 -17 22 -19 36 -11 13 7 20 7 25 -1 4 -6 32 -11
62 -10 30 0 78 -4 108 -10 29 -6 55 -11 57 -11 2 0 4 7 4 16 0 9 6 14 13 11 6
-2 11 -10 9 -17 -3 -11 0 -11 13 0 14 11 18 10 31 -8 15 -22 54 -31 54 -12 0
5 -6 7 -14 4 -8 -3 -17 -1 -21 5 -3 7 3 11 17 12 13 0 34 2 47 5 13 2 29 0 35
-5 6 -5 20 -11 31 -14 11 -3 -1 -4 -27 -2 -34 3 -48 0 -48 -9 0 -15 103 -11
137 6 14 7 40 8 70 3 26 -4 82 -9 123 -10 41 -1 93 -6 115 -11 22 -4 48 -7 59
-5 11 2 16 -2 12 -8 -8 -13 36 -10 45 3 4 4 16 3 28 -4 16 -8 26 -8 35 0 15
12 76 10 76 -2 0 -12 34 -10 46 2 14 14 76 31 69 19 -13 -21 8 -29 25 -9 9 11
26 20 36 20 15 -1 13 -4 -9 -16 -27 -15 -29 -38 -2 -28 10 4 12 0 8 -15 -4
-17 -1 -21 20 -21 14 0 30 -6 34 -13 4 -7 19 -18 33 -24 19 -9 21 -12 8 -14
-10 -1 -22 -3 -28 -4 -5 -1 -16 -4 -22 -5 -7 -1 5 -6 27 -10 22 -4 41 -4 43 0
4 10 46 -1 88 -23 17 -9 55 -18 86 -21 30 -3 72 -8 94 -11 76 -11 144 -12 144
-1 0 6 4 5 8 -2 11 -17 42 -4 42 18 0 10 -7 23 -15 30 -12 10 -16 8 -23 -11
-7 -19 -17 -24 -50 -25 -48 -1 -46 11 7 34 33 15 34 16 12 20 -13 2 -26 -1
-30 -6 -9 -14 -67 -7 -96 12 -28 18 -33 36 -10 36 8 0 15 -6 15 -14 0 -8 7
-16 15 -20 17 -6 21 9 4 20 -6 3 -9 17 -6 30 2 13 0 24 -4 24 -5 0 -9 4 -9 9
0 5 14 8 30 6 17 -1 29 -6 28 -11 -2 -5 -9 -8 -16 -8 -7 1 -11 -3 -9 -10 2 -6
12 -10 21 -8 19 3 48 -22 38 -33 -4 -4 3 -2 16 4 12 6 22 16 22 22 0 22 -22
49 -40 49 -14 0 -18 5 -14 18 5 14 4 14 -4 3 -7 -10 -25 -14 -53 -13 -33 2
-40 0 -36 -12 7 -18 -17 -28 -32 -13 -8 8 -11 5 -11 -11 0 -12 6 -22 13 -23 6
0 0 -5 -15 -11 -17 -6 -28 -17 -28 -28 0 -10 -5 -22 -11 -25 -14 -9 -27 4 -13
13 6 4 13 17 16 29 5 17 1 23 -15 25 -11 2 -22 9 -23 16 -1 7 0 8 3 2 11 -22
22 -9 13 16 -13 32 -13 44 0 44 5 0 12 -11 16 -25 3 -14 8 -25 11 -25 13 0 63
32 63 40 0 6 7 10 15 10 8 0 15 4 15 10 0 5 7 7 16 3 14 -5 16 -1 12 20 -6 29
-3 30 49 29 18 -1 35 3 38 8 11 17 20 11 21 -15 1 -14 -2 -25 -8 -25 -5 0 -6
-5 -3 -10 3 -6 11 -10 16 -10 6 0 7 4 4 10 -3 5 -1 10 5 10 6 0 13 -7 16 -15
4 -8 12 -15 20 -15 17 0 17 5 4 31 -8 14 -8 19 1 17 6 -2 14 3 17 11 3 10 -2
12 -22 7 -19 -5 -26 -3 -26 9 0 11 8 14 35 9 23 -3 35 -1 35 6 0 7 8 9 20 5
14 -4 20 -2 20 8 0 32 28 41 101 31 40 -6 73 -6 76 -1 3 5 16 6 30 2 15 -3 22
-2 19 4 -8 12 31 34 44 26 12 -7 13 5 2 21 -10 16 -52 28 -52 15 0 -6 -5 -11
-11 -11 -15 0 -39 26 -32 34 4 3 2 6 -4 6 -6 0 -13 -6 -16 -13 -3 -8 -16 -13
-29 -11 -12 1 -36 3 -53 4 l-30 2 30 13 c19 9 24 14 12 15 -14 0 -16 5 -11 25
4 17 2 25 -7 25 -7 0 -9 3 -6 6 3 4 2 15 -3 25 -9 17 -5 18 55 14 41 -3 67 0
71 7 5 8 -23 10 -100 6 -58 -3 -109 -2 -112 3 -3 5 -18 9 -33 9 -16 0 -34 7
-42 16 -8 10 -22 13 -38 10 -14 -3 -20 -3 -13 0 14 7 16 34 2 34 -5 0 3 12 18
27 15 15 33 26 40 25 6 -2 12 1 12 6 0 17 -12 21 -38 11 -30 -12 -52 10 -25
25 10 5 18 4 24 -5 7 -11 9 -11 9 3 0 17 34 19 58 4 9 -5 9 0 2 18 -6 17 -6
26 0 26 6 0 10 5 10 10 0 6 -7 10 -16 10 -8 0 -13 -4 -10 -8 2 -4 1 -14 -4
-21 -9 -15 -40 -8 -40 9 0 6 4 9 8 6 5 -3 19 6 30 19 24 27 50 32 58 12 3 -8
10 -14 17 -14 7 0 22 -3 35 -7 13 -5 22 -3 22 3 0 6 -12 11 -27 11 -34 0 -22
12 17 17 28 3 35 -4 31 -29 0 -5 4 -8 9 -8 6 0 10 7 10 15 0 18 11 19 44 4 14
-7 33 -8 43 -4 10 5 32 10 48 11 28 3 68 9 90 13 6 1 3 5 -5 11 -8 5 -11 12
-7 16 3 4 14 1 22 -6 15 -12 15 -14 0 -22 -20 -12 -10 -28 17 -28 14 0 18 -5
14 -15 -6 -17 20 -20 43 -6 8 5 24 3 40 -5 14 -8 34 -14 45 -14 15 0 16 3 6
15 -7 8 -9 15 -4 15 5 0 1 5 -9 11 -14 8 -16 14 -6 25 13 16 -2 19 -17 4 -7
-7 -14 -2 -22 15 -11 23 -10 25 6 16 13 -7 25 -2 52 21 21 18 30 32 23 35 -7
2 -9 11 -6 20 4 11 2 14 -5 9 -7 -4 -12 -13 -12 -21 0 -8 -5 -17 -12 -21 -8
-5 -9 -1 -4 12 6 15 5 17 -5 7 -15 -15 -43 -17 -34 -3 3 6 4 14 0 20 -6 10
-55 -7 -66 -24 -7 -9 -29 0 -29 13 0 14 50 31 89 31 43 0 65 17 51 40 -15 23
-12 29 10 23 12 -3 19 -8 16 -11 -3 -2 -1 -14 5 -25 7 -13 7 -17 1 -13 -6 3
-13 2 -17 -3 -3 -6 14 -8 47 -5 49 5 52 4 34 -10 -11 -9 -28 -16 -37 -16 -12
0 -16 -6 -12 -20 4 -16 8 -18 19 -9 8 6 32 9 55 7 40 -4 40 -3 35 23 -3 19 0
29 10 33 28 11 46 7 40 -9 -7 -19 8 -20 23 -2 13 16 5 27 -21 27 -25 0 -22 17
8 45 14 13 23 29 19 34 -3 6 -1 11 4 11 6 0 11 5 11 10 0 16 -37 12 -44 -5 -8
-22 -34 -18 -41 5 -9 29 -43 46 -51 25 -4 -9 -13 -14 -20 -11 -19 7 -18 -9 2
-28 22 -23 7 -20 -24 5 -17 13 -34 18 -49 14 -13 -3 -23 -2 -23 3 0 5 -17 13
-37 19 l-38 10 33 8 c35 8 37 11 19 40 -13 22 -54 27 -49 7 1 -8 -7 -7 -24 4
-22 15 -23 19 -10 26 24 13 75 18 82 7 3 -5 12 -2 20 6 19 18 10 36 -14 29 -9
-3 -6 2 8 10 34 21 47 20 53 -4 3 -11 11 -20 19 -20 11 0 11 2 0 9 -11 7 -11
9 2 14 14 6 21 -4 17 -25 -2 -17 29 -7 39 12 6 11 15 18 21 15 16 -10 10 -32
-11 -38 -11 -3 -20 -10 -20 -16 0 -19 40 7 49 32 7 18 4 24 -15 30 -29 10 -32
27 -4 27 28 0 71 -22 67 -34 -3 -6 -10 -10 -16 -9 -6 2 -11 -2 -11 -7 0 -16
22 -12 35 7 12 15 13 15 19 -3 4 -15 15 -19 51 -19 l45 0 0 1243 0 1242 -3135
0 c-2778 0 -3136 -2 -3141 -15 -4 -8 -11 -15 -16 -15 -6 0 -5 6 2 15 11 13
-44 15 -485 15 -415 -1 -495 -3 -479 -14 22 -15 104 -42 155 -50 21 -4 42 -12
47 -19 8 -9 -1 -12 -39 -14 -27 0 -49 3 -49 8 0 5 -11 9 -24 9 -13 0 -26 3
-28 8 -4 10 -79 46 -98 47 -8 1 -14 6 -13 12 2 9 -80 12 -308 13 -275 0 -311
-1 -305 -15 3 -8 1 -15 -4 -15 -6 0 -10 7 -10 15 0 12 -27 14 -182 14 -157 -1
-179 -3 -163 -15 10 -8 14 -14 9 -14 -6 0 -19 7 -30 15 -16 12 -68 14 -294 14
-244 0 -273 -1 -256 -14 11 -8 16 -15 10 -15 -5 0 -18 7 -28 15 -17 13 -78 15
-385 14 -201 -1 -355 -4 -341 -6 42 -8 42 -19 0 -18 -28 0 -39 4 -35 13 6 17
-187 17 -215 0 -15 -9 -24 -9 -42 0 -17 10 -101 12 -333 9 -170 -2 -323 -6
-340 -10 -25 -6 -26 -5 -5 2 14 5 -913 9 -2207 10 l-2233 1 0 -200z m5858
-256 c14 -4 21 -12 18 -20 -4 -11 -2 -11 14 -1 11 6 20 15 20 19 0 19 32 5 40
-18 6 -15 15 -22 21 -18 9 5 10 -1 5 -21 -6 -24 -5 -27 13 -22 20 5 30 -8 12
-15 -5 -2 -4 -19 4 -40 10 -31 10 -38 -1 -38 -7 0 -16 -5 -20 -11 -5 -8 0 -10
17 -6 21 5 24 3 25 -23 1 -24 -3 -30 -20 -29 -12 0 -15 3 -8 6 8 3 3 12 -15
26 -18 15 -28 17 -31 9 -2 -7 -11 -12 -20 -12 -12 0 -11 5 7 24 15 16 19 26
11 31 -6 4 -9 13 -6 21 3 7 1 16 -5 20 -6 3 -8 12 -5 19 3 8 -2 19 -10 25 -12
11 -13 8 -8 -19 4 -18 2 -31 -4 -31 -5 0 -9 6 -8 13 0 6 -2 13 -7 14 -4 2 -21
10 -37 18 -18 9 -44 13 -67 11 -21 -3 -45 -1 -53 4 -11 7 -5 10 23 10 40 0 51
16 15 23 -17 3 -14 5 10 6 17 0 31 4 31 9 -4 23 2 26 39 16z m182 -39 c0 -13
13 -20 23 -12 11 7 38 -29 33 -45 -2 -11 2 -22 9 -24 7 -3 16 -16 19 -29 4
-14 16 -30 29 -36 18 -9 20 -9 10 2 -18 19 -17 50 2 43 8 -4 15 -12 15 -20 0
-8 7 -14 15 -14 8 0 15 -9 15 -21 0 -16 -4 -19 -21 -14 -15 5 -20 3 -17 -6 5
-14 -40 -44 -50 -34 -3 3 0 5 6 5 7 0 12 9 12 20 0 12 -7 20 -16 20 -14 0 -14
-3 -4 -15 10 -12 10 -15 -3 -15 -8 0 -22 -11 -31 -25 -9 -14 -22 -25 -29 -25
-8 0 -9 2 -1 8 6 4 14 17 18 30 4 12 12 22 18 22 6 0 8 12 5 30 -4 17 -2 30 3
30 16 0 11 17 -6 24 -10 4 -23 -2 -34 -14 -24 -27 -32 -25 -24 6 5 19 4 25 -5
20 -13 -9 -14 3 -2 23 6 10 3 20 -12 32 -19 16 -19 18 -5 19 11 0 15 5 12 15
-4 8 -1 15 5 15 6 0 11 -7 11 -15z m-1211 -141 c-3 -153 0 -163 44 -164 9 0
17 -5 17 -11 0 -8 -12 -10 -34 -6 l-33 5 -2 -71 c-1 -39 -4 -73 -6 -75 -2 -2
-38 -13 -81 -23 -79 -21 -93 -18 -94 18 0 6 -13 11 -30 11 -27 -1 -31 -5 -36
-38 -6 -37 -7 -38 -80 -55 -41 -10 -77 -15 -80 -12 -3 3 -17 47 -31 99 -14 51
-31 116 -39 143 -8 28 -16 62 -19 77 -2 16 -9 45 -14 65 -15 53 -16 52 30 59
22 4 47 13 55 21 14 14 30 14 87 -3 10 -3 17 0 17 9 0 9 22 20 62 30 65 17 78
15 78 -9 0 -9 10 -14 28 -14 l27 0 -25 -20 c-26 -20 -26 -21 5 -38 17 -10 18
-11 3 -12 -22 0 -22 5 -2 -83 27 -118 34 -113 33 23 -2 204 -6 187 49 203 79
25 74 33 71 -129z m-626 -38 c42 -18 82 -62 95 -106 53 -175 -9 -323 -152
-365 -33 -10 -71 -14 -88 -11 -46 9 -97 44 -115 79 -9 18 -23 37 -32 44 -9 7
-11 13 -5 13 12 0 7 59 -7 76 -6 7 -5 22 1 38 5 15 10 39 10 54 0 29 48 119
75 142 26 22 105 48 148 49 21 1 52 -5 70 -13z m-492 -65 c6 10 9 11 9 2 0 -7
7 -13 15 -13 8 0 15 -6 15 -13 0 -15 83 -40 88 -27 2 5 10 6 18 3 12 -4 12 -8
2 -20 -10 -12 -9 -17 2 -27 24 -18 24 -92 -1 -142 -11 -24 -25 -44 -30 -44
-19 0 -8 -23 26 -56 19 -18 35 -36 35 -40 0 -3 10 -19 21 -36 27 -37 21 -41
-71 -62 -65 -15 -85 -10 -74 19 3 7 -2 15 -10 18 -9 4 -16 14 -16 23 0 22 -39
76 -51 69 -5 -3 -6 -39 -2 -81 5 -67 4 -77 -14 -94 -12 -10 -23 -16 -26 -13
-4 3 -19 2 -34 -2 -30 -7 -32 -4 26 -45 27 -18 26 -26 -1 -33 -26 -7 -61 20
-54 40 3 7 -2 20 -11 28 -8 9 -17 35 -18 58 -2 50 -14 147 -20 165 -2 6 -14
12 -25 12 -12 0 -18 -4 -15 -10 3 -5 1 -10 -5 -10 -7 0 -9 -8 -5 -20 5 -15 3
-18 -9 -14 -12 5 -15 2 -10 -10 4 -11 1 -16 -10 -16 -19 0 -21 -11 -4 -28 14
-14 32 -16 23 -2 -3 5 0 7 8 4 8 -3 13 -16 12 -28 -2 -15 9 -38 27 -60 16 -20
26 -40 23 -46 -3 -5 1 -10 9 -10 9 0 16 -5 16 -11 0 -7 -7 -8 -17 -3 -22 10
-94 7 -102 -3 -11 -15 -41 -14 -47 2 -4 9 -20 23 -37 31 -20 11 -26 18 -18 24
10 6 10 12 0 29 -15 22 -29 28 -29 10 0 -5 -5 -7 -12 -3 -8 5 -10 -10 -5 -59
l6 -66 -42 -12 c-23 -6 -55 -13 -71 -14 -15 -1 -31 -8 -35 -14 -6 -9 -14 -9
-37 0 -25 10 -26 13 -9 16 58 11 63 13 60 30 -2 10 -4 29 -4 43 -2 33 -20 61
-28 41 -5 -11 -7 -11 -14 0 -6 10 -9 8 -9 -7 0 -12 -13 -47 -29 -77 -16 -31
-27 -58 -23 -61 3 -3 -2 -6 -11 -6 -9 0 -17 -4 -17 -9 0 -5 -10 -11 -22 -13
-13 -2 -22 -9 -20 -16 3 -14 -12 -30 -45 -49 -17 -10 -20 -9 -19 5 1 13 -8 17
-44 18 -25 1 -51 -3 -57 -9 -10 -7 -13 -4 -13 9 0 22 -69 80 -89 76 -12 -3
-13 -1 -2 11 10 13 10 20 0 39 -20 37 -29 154 -15 195 6 18 4 21 -16 16 l-23
-5 23 20 c15 14 18 22 10 25 -7 3 -2 6 11 6 18 1 22 5 18 20 -3 12 1 18 12 17
11 -1 15 6 13 24 -1 19 0 21 7 10 9 -12 12 -12 28 3 28 24 99 47 150 47 51 0
93 -19 121 -55 11 -14 27 -25 35 -25 9 0 19 -5 23 -12 5 -8 2 -9 -10 -5 -16 6
-17 3 -11 -30 8 -45 21 -61 36 -46 8 8 8 36 0 99 -6 49 -11 96 -11 104 0 11
22 21 70 34 38 9 72 21 75 25 7 13 117 2 157 -16 31 -13 40 -24 53 -64 9 -27
20 -49 25 -49 5 0 8 42 8 92 l-1 93 56 13 c42 10 54 17 50 29 -5 12 4 13 50 9
31 -3 59 -1 62 3 3 5 -13 8 -35 7 -32 -1 -40 2 -40 17 0 15 3 16 21 6 17 -9
23 -8 30 2z m3673 -268 c9 -58 166 -1427 163 -1429 -12 -9 -403 -102 -408 -96
-8 9 -172 1452 -166 1458 6 6 366 101 389 103 11 1 18 -10 22 -36z m-6664 -13
c0 -5 13 -10 29 -10 17 0 32 -4 35 -9 3 -5 14 -7 24 -4 10 2 26 -5 36 -16 11
-12 26 -21 35 -21 13 -1 12 -3 -3 -12 -15 -8 -22 -7 -30 4 -12 17 -72 22 -81
7 -4 -5 -17 -9 -31 -9 -14 0 -22 -4 -19 -10 3 -5 2 -10 -4 -10 -5 0 -11 5 -13
11 -2 7 -13 9 -26 5 -12 -4 -20 -12 -17 -17 4 -5 2 -9 -4 -9 -6 0 -8 -7 -5
-14 4 -11 -8 -19 -43 -29 -43 -13 -49 -12 -60 2 -7 9 -13 12 -13 6 0 -9 -14
-10 -77 -6 -24 2 -13 21 11 21 13 0 29 7 36 15 9 11 16 13 24 5 15 -15 26 -12
19 6 -4 12 -2 15 8 12 8 -3 13 -12 11 -22 -4 -20 17 -21 24 -1 4 8 10 15 16
15 5 0 6 -4 3 -10 -3 -6 1 -7 10 -4 14 6 14 8 0 25 -16 16 -16 17 4 12 14 -3
23 0 27 11 7 19 40 22 46 4 2 -6 10 -8 16 -4 19 11 14 26 -8 26 -23 0 -26 10
-8 28 15 15 28 16 28 2z m1844 -21 c-5 -9 4 -10 32 -5 28 5 35 4 24 -3 -13 -9
-13 -11 2 -11 13 0 20 -11 24 -41 5 -29 13 -43 25 -46 11 -3 19 -12 19 -20 0
-9 -6 -13 -15 -9 -8 3 -15 4 -15 3 0 -1 7 -38 14 -82 11 -60 20 -83 35 -94 25
-16 28 -36 5 -27 -14 5 -15 1 -9 -31 18 -95 19 -91 -37 -108 -75 -22 -76 -21
-83 38 -8 66 -20 89 -35 67 -5 -8 -10 -32 -10 -52 0 -36 -1 -37 -54 -52 -30
-9 -58 -16 -63 -16 -5 0 -19 32 -32 70 -12 39 -24 70 -27 70 -3 0 -3 -46 -2
-102 l3 -101 -105 -27 c-58 -15 -115 -30 -127 -34 -18 -6 -28 3 -67 64 -25 38
-51 70 -57 70 -9 0 -10 -23 -6 -83 l7 -84 -63 -15 -62 -15 -12 71 c-6 39 -14
103 -18 141 -3 39 -11 108 -17 154 -7 61 -7 85 1 90 6 4 59 18 117 31 86 19
114 21 145 13 28 -7 39 -7 39 1 1 6 8 -1 16 -16 17 -32 28 -37 19 -9 -5 15 -1
18 20 13 14 -2 25 -9 25 -14 0 -5 -4 -6 -10 -3 -5 3 -7 0 -4 -9 3 -8 -1 -16
-10 -18 -11 -2 -9 -6 9 -15 24 -11 25 -10 25 28 0 30 -4 39 -17 40 -17 1 -17
2 0 6 9 2 17 11 17 20 0 9 -6 13 -15 9 -8 -3 -15 -3 -15 -1 0 11 130 66 140
60 6 -4 29 3 51 14 22 12 57 21 79 21 30 0 40 4 40 16 0 11 -6 13 -19 9 -11
-3 -22 -2 -25 3 -10 16 29 20 49 6 10 -8 30 -13 44 -13 17 1 20 3 9 6 -10 2
-18 9 -18 14 0 6 -4 7 -10 4 -5 -3 -10 -1 -10 4 0 6 9 11 21 11 12 0 18 -4 13
-11z m4191 -131 c14 -101 164 -1423 161 -1425 -7 -7 -508 -133 -514 -129 -4 2
-102 220 -217 484 -115 265 -211 479 -212 478 -2 -2 10 -46 27 -100 49 -160
79 -326 116 -635 19 -161 33 -295 32 -296 -6 -6 -352 -94 -355 -91 -2 2 -28
217 -58 477 -30 261 -68 589 -84 729 -16 140 -26 257 -21 260 13 8 501 133
504 129 1 -2 91 -204 200 -448 269 -604 250 -566 201 -401 -29 97 -58 223 -74
325 -17 108 -72 588 -67 592 4 5 324 90 343 92 7 1 14 -18 18 -41z m2855 -67
c0 -24 -5 -29 -30 -35 l-31 -6 6 -77 c4 -43 8 -83 10 -90 4 -13 -16 -23 -46
-23 -15 0 -19 7 -19 33 0 17 -3 56 -7 85 l-6 54 -33 -7 c-32 -6 -34 -4 -34 23
0 27 3 29 83 49 109 28 107 28 107 -6z m-7822 -108 c-3 -24 -10 -29 -68 -43
-61 -15 -65 -18 -68 -45 -4 -50 7 -56 67 -38 62 18 73 11 69 -47 -3 -33 -5
-35 -62 -49 l-58 -15 5 -39 c3 -21 7 -40 9 -42 2 -2 36 4 75 14 l72 19 7 -45
c3 -24 4 -46 1 -49 -7 -7 -270 -74 -274 -70 -3 3 -22 152 -44 349 -6 54 -9
100 -7 101 1 1 64 18 138 38 l135 35 3 -24 c2 -12 2 -35 0 -50z m7592 47 c11
-11 20 -26 20 -34 0 -20 -52 -27 -72 -9 -13 11 -21 12 -37 3 -17 -8 -21 -20
-21 -58 0 -27 5 -53 12 -60 20 -20 48 -14 58 12 8 22 55 44 67 32 11 -11 -9
-59 -33 -81 -55 -51 -130 -40 -159 22 -33 68 -3 157 60 183 37 16 84 11 105
-10z m-222 -56 c-2 -12 -18 -22 -48 -29 -34 -8 -46 -16 -48 -32 -3 -20 -1 -21
30 -12 49 14 58 11 58 -15 0 -20 -7 -25 -45 -35 -48 -12 -48 -12 -39 -34 5
-13 12 -13 54 -2 46 12 49 12 54 -8 7 -29 2 -33 -85 -55 l-77 -19 -5 46 c-4
25 -9 78 -13 118 l-6 72 38 9 c128 32 139 32 132 -4z m-8483 6 c-10 -17 16
-41 37 -35 10 4 35 1 55 -6 29 -9 38 -9 41 0 3 9 7 9 18 0 11 -9 11 -13 -2
-26 -9 -9 -13 -24 -11 -34 4 -14 0 -17 -22 -14 -14 1 -36 3 -48 4 -13 0 -22 4
-20 9 4 14 -55 68 -60 55 -3 -7 -11 -13 -19 -13 -26 0 -15 -19 27 -47 22 -14
53 -26 70 -26 38 0 37 -11 -3 -28 -23 -9 -33 -10 -35 -2 -3 7 -11 9 -20 6 -11
-4 -14 -2 -9 5 4 7 2 12 -3 12 -6 0 -11 -7 -11 -15 0 -8 5 -15 10 -15 6 0 10
-5 10 -11 0 -5 -10 -3 -22 5 -31 22 -36 20 -32 -10 2 -23 0 -25 -27 -19 -19 4
-29 3 -29 -5 0 -7 -9 -9 -22 -5 -18 5 -20 4 -8 -4 12 -9 11 -11 -7 -11 -12 0
-25 5 -28 10 -3 6 -1 10 5 10 7 0 10 7 7 14 -4 11 -1 13 11 9 12 -4 11 0 -5
16 -33 31 -30 49 8 43 17 -2 33 -11 36 -18 4 -11 7 -11 19 1 8 7 14 16 14 20
0 12 -29 35 -44 35 -8 0 -17 4 -20 9 -7 10 22 24 34 16 5 -3 23 3 40 14 21 12
28 21 20 26 -8 5 -4 12 12 20 29 16 41 18 33 5z m813 -52 l-3 -52 -47 -14
c-34 -9 -48 -18 -47 -30 0 -9 8 -87 18 -172 11 -85 16 -158 12 -162 -3 -3 -32
-13 -63 -21 -48 -13 -58 -13 -58 -2 0 8 -5 37 -11 65 -11 50 -11 51 -29 30
-16 -18 -21 -19 -45 -8 -22 10 -28 9 -36 -3 -14 -22 -11 -59 8 -77 16 -16 15
-17 -10 -20 -14 -2 -37 -16 -51 -33 -14 -16 -30 -29 -35 -29 -8 0 -7 -7 1 -20
16 -25 11 -29 -51 -36 -37 -4 -51 -2 -46 5 4 7 -9 11 -39 11 -24 0 -65 9 -90
19 l-45 20 -3 -31 c-3 -29 -7 -33 -61 -48 -32 -8 -56 -18 -53 -20 2 -3 -12 -6
-33 -6 -21 -1 -52 -8 -67 -15 -16 -8 -39 -13 -51 -11 -19 3 -23 10 -23 40 0
57 -19 157 -30 160 -5 2 -10 8 -10 13 0 6 5 7 11 3 11 -6 6 77 -10 171 -10 58
-4 72 32 79 18 3 75 17 127 31 52 14 101 25 108 25 8 0 12 -16 12 -49 0 -51
-9 -60 -60 -66 -8 -1 -30 -5 -48 -9 -31 -7 -32 -9 -26 -44 4 -21 7 -38 8 -39
1 -1 27 5 59 12 53 12 57 12 57 -5 0 -9 3 -31 6 -47 6 -30 5 -31 -53 -45 l-58
-14 0 -39 c0 -38 1 -40 30 -37 17 2 36 9 43 16 14 13 82 9 82 -5 0 -20 20 -7
41 27 18 30 19 38 8 45 -22 14 -5 11 37 -7 62 -26 144 -4 144 37 0 20 -36 38
-87 44 -37 5 -70 16 -90 31 -17 13 -36 24 -40 24 -9 0 -12 17 -14 82 -3 88 90
158 207 158 35 0 74 -5 88 -11 l25 -12 -20 -39 -20 -39 23 -18 23 -19 -32 2
c-17 1 -35 4 -38 8 -4 4 -13 4 -21 1 -8 -3 -14 0 -14 6 0 6 -5 11 -10 11 -18
0 -5 -25 20 -38 22 -11 18 -12 -35 -7 -44 3 -55 2 -43 -6 20 -11 158 -8 158 4
0 4 5 7 10 7 17 0 11 -18 -8 -24 -16 -6 -14 -11 17 -44 32 -34 41 -38 90 -40
l54 -1 -7 72 c-4 40 -10 87 -13 105 -6 36 -7 36 -87 16 -25 -6 -26 -4 -27 35
-1 23 -2 46 -3 52 -1 8 289 92 337 98 4 1 7 -22 5 -51z m7457 -45 c3 -38 8
-89 11 -115 5 -45 4 -48 -21 -54 -23 -6 -35 1 -82 47 l-55 54 7 -66 c7 -66 7
-66 -20 -73 -15 -4 -29 -5 -31 -3 -4 4 -24 179 -24 213 0 16 8 23 28 27 23 5
35 -3 79 -46 l53 -51 -7 51 c-7 64 0 83 31 83 23 0 25 -4 31 -67z m1823 31
c-2 -12 -19 -23 -51 -32 -34 -10 -47 -18 -47 -32 0 -16 4 -17 32 -9 49 14 58
11 58 -15 0 -24 -16 -36 -48 -36 -27 0 -43 -15 -37 -32 6 -14 12 -14 55 -3 46
12 49 12 54 -8 7 -29 2 -33 -86 -55 l-76 -19 -6 41 c-3 22 -8 75 -12 117 l-6
76 78 20 c81 21 98 18 92 -13z m-198 -49 c0 -18 -7 -25 -31 -30 l-31 -7 4 -91
3 -90 -27 -8 c-27 -7 -27 -7 -33 60 -3 36 -7 75 -8 86 -2 16 -8 19 -35 17 -31
-3 -33 -2 -30 24 3 26 9 29 88 49 47 12 88 20 93 18 4 -2 7 -15 7 -28z m-1886
-42 c4 -38 9 -89 12 -115 6 -45 4 -48 -22 -59 -27 -10 -32 -7 -81 48 l-53 58
2 -70 c3 -69 3 -70 -24 -73 -29 -4 -31 2 -44 147 -5 57 -3 75 7 82 30 19 55 8
100 -43 l47 -53 -5 67 c-5 59 -4 67 13 71 39 10 42 7 48 -60z m-3319 -5 c25
-102 262 -1414 257 -1419 -10 -9 -391 -103 -396 -98 -15 15 -124 906 -127
1038 l-1 46 -8 -40 c-5 -22 -16 -242 -25 -490 -10 -247 -18 -451 -19 -452 -8
-10 -391 -102 -396 -96 -4 4 -65 196 -135 425 -71 230 -130 416 -132 414 -2
-2 3 -32 11 -67 30 -128 56 -320 87 -637 17 -178 29 -326 26 -329 -12 -12
-390 -104 -397 -96 -11 13 -74 1473 -64 1482 9 8 486 133 489 128 1 -1 63
-211 136 -467 81 -280 135 -453 137 -435 1 17 9 243 16 503 8 261 17 476 19
479 5 5 485 131 504 132 7 1 15 -9 18 -21z m4967 -94 c27 -58 49 -107 47 -109
-2 -2 -16 -6 -31 -10 -21 -5 -27 -3 -33 14 -7 22 -14 24 -55 12 -14 -4 -27
-16 -30 -31 -5 -20 -54 -50 -65 -39 -2 2 10 61 27 131 31 131 28 128 81 137 5
0 31 -47 59 -105z m-1942 71 c76 -39 59 -186 -27 -221 -50 -21 -81 -17 -114
15 -53 53 -35 160 34 201 38 24 68 25 107 5z m1714 -47 c20 -28 20 -67 1 -95
-14 -20 -13 -25 6 -58 18 -31 20 -38 8 -46 -27 -17 -49 -9 -65 24 -21 40 -19
38 -35 32 -10 -4 -13 -17 -11 -45 4 -35 1 -40 -22 -46 -15 -3 -29 -4 -32 -1
-7 7 -26 205 -22 219 5 14 78 36 125 37 22 1 37 -6 47 -21z m-1950 -19 c14
-11 26 -26 26 -34 0 -20 -48 -28 -72 -11 -36 25 -58 5 -58 -54 0 -58 20 -86
51 -70 10 6 19 17 19 25 0 16 5 20 44 29 27 7 28 6 22 -21 -4 -15 -14 -38 -22
-50 -17 -27 -82 -48 -118 -39 -54 13 -84 114 -53 176 16 33 73 70 107 70 15 0
39 -9 54 -21z m1698 -30 c23 -13 48 -67 48 -106 0 -66 -67 -133 -132 -133 -15
0 -40 11 -55 24 -25 22 -28 30 -28 89 0 56 4 69 25 92 40 44 98 57 142 34z
m-220 -74 c8 -19 8 -31 -1 -51 -10 -22 -9 -28 5 -39 21 -15 23 -67 4 -90 -11
-13 -62 -32 -141 -50 l-27 -7 -8 109 c-5 59 -9 112 -9 118 0 12 78 33 128 34
31 1 39 -3 49 -24z m-242 -132 c38 -81 47 -109 38 -115 -22 -13 -45 -9 -59 11
-19 26 -76 11 -81 -21 -3 -21 -50 -49 -62 -37 -6 6 50 239 60 249 5 4 18 10
29 13 11 3 21 5 23 6 1 0 25 -47 52 -106z m-296 0 c3 -21 6 -55 6 -75 0 -59 7
-68 43 -57 48 14 57 11 57 -16 0 -25 -25 -37 -111 -51 l-37 -6 -6 48 c-18 153
-18 176 -5 185 30 19 46 10 53 -28z m-181 -102 c3 -40 8 -76 11 -78 3 -3 23
-1 46 5 40 10 40 10 40 -18 0 -26 -5 -29 -65 -44 -35 -9 -68 -16 -74 -16 -7 0
-25 151 -26 220 0 17 47 31 56 16 4 -6 9 -44 12 -85z m-5108 17 c2 -18 30
-253 61 -523 58 -511 60 -551 28 -665 -40 -140 -154 -283 -285 -357 -109 -62
-297 -113 -414 -113 -213 0 -366 119 -419 325 -13 53 -126 989 -126 1047 0 22
13 26 203 75 111 28 203 50 204 49 1 -1 27 -224 58 -496 31 -272 63 -519 71
-548 8 -29 27 -67 43 -84 25 -28 34 -32 78 -31 84 1 152 47 179 120 21 59 18
106 -42 631 -31 271 -54 495 -53 496 4 3 388 104 401 105 4 1 10 -14 13 -31z
m4979 1 c45 -53 31 -154 -26 -191 -62 -40 -126 -29 -152 27 -44 91 18 195 116
195 28 0 42 -7 62 -31z m-245 -55 c24 -31 21 -40 -16 -47 -18 -3 -31 0 -38 10
-16 22 -54 7 -61 -24 -4 -14 -3 -42 2 -62 11 -46 48 -56 65 -17 11 23 55 44
67 32 11 -12 -15 -70 -40 -89 -35 -26 -100 -28 -127 -3 -54 49 -49 151 10 200
43 37 109 37 138 0z m3471 6 c0 -5 7 -6 17 -3 11 4 14 3 9 -5 -10 -17 32 -21
69 -7 l20 8 -20 -16 c-11 -9 -18 -17 -15 -17 46 -11 73 -4 49 11 -7 4 -10 11
-6 16 10 9 27 -16 21 -31 -3 -7 5 -12 17 -13 12 -1 29 -9 38 -18 14 -13 13
-15 -3 -15 -17 0 -17 -2 5 -23 13 -13 30 -21 38 -18 9 3 12 0 7 -7 -11 -17 23
-27 45 -14 24 15 46 15 55 0 5 -8 2 -9 -9 -5 -10 3 -17 2 -17 -4 0 -6 -4 -7
-10 -4 -17 10 -51 -30 -44 -51 4 -10 4 -16 0 -12 -4 3 -21 2 -37 -2 -16 -5
-29 -5 -29 0 0 5 -10 12 -22 16 -13 3 -32 14 -42 23 -11 9 -16 10 -12 3 10
-17 -24 -29 -34 -12 -5 8 -15 10 -26 6 -18 -7 -18 -8 0 -22 11 -8 16 -14 10
-14 -5 0 -18 7 -28 15 -11 8 -27 13 -37 10 -9 -3 -22 1 -28 9 -9 11 -19 13
-38 5 -27 -10 -44 -5 -39 14 1 7 1 9 -1 6 -2 -4 -14 -5 -26 -2 -15 3 -18 2 -9
-5 10 -7 9 -12 -4 -23 -10 -8 -15 -9 -11 -3 4 7 -4 9 -24 6 -16 -2 -32 -9 -35
-14 -7 -11 16 -29 27 -22 4 2 12 -3 19 -11 9 -11 17 -12 31 -4 11 5 19 6 19 1
0 -6 -8 -12 -17 -15 -10 -2 -27 -8 -37 -13 -14 -5 -17 -4 -12 4 4 7 2 12 -3
12 -6 0 -11 -4 -11 -10 0 -5 -5 -10 -11 -10 -5 0 -7 4 -4 10 3 6 -1 7 -9 4 -9
-3 -16 -11 -16 -18 0 -7 -3 -7 -8 -1 -9 13 -42 15 -39 3 1 -6 -4 -13 -10 -15
-18 -7 -16 22 2 37 23 19 18 28 -16 35 -22 5 -28 10 -19 15 7 5 19 6 27 3 7
-3 13 2 13 11 0 14 3 14 20 4 15 -10 22 -10 32 0 6 6 22 12 34 12 13 0 26 5
30 11 3 6 20 17 38 25 l31 13 -37 1 c-22 0 -38 -5 -38 -11 0 -8 -5 -8 -15 1
-12 10 -15 10 -15 -1 0 -10 -2 -11 -8 -2 -13 20 -59 26 -65 9 -8 -21 -27 -21
-27 0 0 13 -3 14 -14 5 -11 -9 -15 -8 -20 4 -4 11 -2 14 6 9 6 -4 8 -3 5 3 -4
6 -27 10 -52 9 -25 -1 -45 1 -45 4 0 11 105 39 108 29 6 -15 42 -10 42 6 0 16
41 30 62 22 7 -3 -3 -9 -22 -13 l-34 -7 34 -12 c19 -7 44 -9 55 -5 27 10 45 2
45 -20 0 -16 5 -17 37 -10 22 6 42 5 49 -1 6 -5 19 -7 28 -3 9 3 16 1 16 -5 0
-6 -6 -11 -12 -12 -7 0 5 -7 27 -15 22 -7 52 -21 68 -29 16 -10 27 -12 27 -6
0 6 -7 11 -15 11 -8 0 -15 4 -15 9 0 13 28 22 35 11 9 -15 25 -12 25 5 0 8 5
15 11 15 6 0 4 7 -5 15 -8 8 -25 14 -38 14 -17 -1 -18 -3 -5 -6 9 -2 17 -9 17
-14 0 -6 -8 -5 -20 1 -22 12 -27 30 -7 30 6 0 4 5 -7 11 -13 8 -20 8 -25 0 -5
-7 -17 -8 -42 -1 -28 8 -36 7 -46 -7 -7 -9 -13 -12 -13 -6 0 7 5 15 10 18 20
13 9 21 -32 24 -25 1 -45 -3 -50 -11 -8 -10 -11 -10 -15 -1 -3 9 -14 11 -31 6
-24 -6 -25 -5 -12 8 19 19 137 52 152 43 7 -4 8 -3 4 4 -4 7 -2 12 3 12 6 0
11 -4 11 -10z m-485 -140 c0 -8 11 -17 25 -21 l25 -7 -24 -1 c-37 -2 -15 -15
30 -18 21 -1 39 2 39 7 0 6 -7 10 -15 10 -8 0 -15 7 -15 16 0 8 -4 13 -9 9 -5
-3 -12 -1 -16 5 -4 6 -11 8 -16 5 -5 -4 -9 -1 -9 5 0 7 7 9 16 6 9 -3 29 -6
45 -6 21 0 27 -4 23 -15 -4 -8 -1 -21 5 -29 6 -7 7 -16 3 -21 -4 -4 3 -1 16 6
14 8 21 21 19 31 -3 11 1 16 14 15 37 -3 16 -47 -29 -61 -12 -4 -22 -12 -22
-17 0 -6 4 -7 10 -4 5 3 18 1 27 -5 14 -8 7 -10 -32 -8 -43 3 -50 0 -49 -15 2
-14 -1 -15 -12 -6 -8 6 -11 15 -9 20 3 4 -11 24 -30 43 -38 38 -61 50 -30 16
18 -19 17 -20 -3 -20 -11 0 -24 5 -27 10 -4 7 -13 6 -27 -1 -18 -10 -19 -8
-13 12 6 17 4 21 -8 16 -9 -3 -18 1 -21 9 -4 11 -1 14 13 9 12 -3 21 0 25 10
8 21 81 17 81 -5z m-9530 -292 c3 -24 32 -276 65 -562 33 -285 61 -520 63
-523 3 -2 118 26 256 62 139 36 254 65 257 65 2 0 3 -77 2 -172 l-3 -172 -435
-113 c-239 -62 -439 -113 -445 -113 -10 0 -182 1456 -173 1465 5 5 376 103
395 104 6 1 14 -18 18 -41z m-617 -861 c155 -371 282 -678 282 -683 0 -12
-406 -118 -423 -111 -7 3 -30 62 -51 131 -22 69 -44 126 -50 126 -15 -1 -316
-77 -321 -82 -2 -2 -7 -65 -11 -140 -4 -75 -10 -142 -14 -148 -6 -10 -421
-124 -426 -117 -2 3 235 1569 238 1572 5 4 462 122 478 124 11 1 92 -182 298
-672z m9816 538 c15 -11 23 -12 33 -3 20 16 28 1 9 -18 -15 -15 -15 -18 -1
-33 20 -23 111 -27 119 -6 4 12 11 13 32 5 15 -6 29 -8 32 -6 3 3 -3 8 -12 12
-28 11 -17 25 17 22 24 -2 31 -7 29 -21 -2 -11 2 -17 10 -15 7 1 24 -4 37 -11
33 -19 133 -31 149 -19 11 10 16 4 13 -14 0 -5 4 -8 11 -8 14 0 48 -30 48 -42
0 -4 -5 -8 -11 -8 -5 0 -8 4 -5 9 3 5 -1 15 -10 22 -13 11 -15 11 -14 -2 5
-29 -2 -43 -9 -19 -5 18 -14 25 -34 25 -14 1 -29 4 -33 8 -4 4 -23 4 -42 1
-27 -5 -38 -3 -48 10 -7 10 -30 19 -56 22 -23 2 -58 7 -75 10 -36 7 -45 -8
-15 -25 16 -10 16 -10 -2 -11 -27 0 -8 -17 24 -21 14 -2 30 0 36 4 7 4 14 -2
17 -14 4 -16 3 -18 -8 -9 -9 8 -14 5 -18 -10 -3 -11 -12 -20 -21 -20 -9 0 -16
-7 -16 -16 0 -8 -4 -13 -10 -9 -14 8 0 35 18 35 8 0 12 3 8 7 -9 10 -46 11
-46 2 0 -8 -25 -6 -87 7 -13 2 -23 8 -23 13 0 5 8 7 19 4 10 -3 22 0 25 6 4 5
13 8 21 4 9 -3 15 1 15 10 0 8 6 17 13 20 6 2 -8 3 -33 1 -27 -2 -48 2 -52 9
-5 7 -8 3 -8 -11 0 -14 -4 -21 -11 -17 -6 4 -8 13 -6 20 6 14 -24 42 -41 39
-7 -1 -8 0 -2 3 18 9 11 33 -12 43 -21 8 -22 9 -3 10 l20 1 -20 9 c-13 6 -15
9 -5 9 8 0 24 -6 34 -14z"/>
<path d="M4066 3855 c-24 -24 -30 -80 -17 -156 14 -86 27 -109 63 -109 60 0
83 79 57 200 -8 37 -15 50 -29 50 -9 0 -23 7 -30 15 -16 19 -25 19 -44 0z"/>
<path d="M2849 3463 c-2 -29 2 -48 13 -54 6 -4 5 -8 -3 -11 -10 -3 -9 -16 7
-59 14 -41 25 -55 42 -57 12 -2 22 1 22 7 0 6 6 8 14 5 17 -7 26 7 37 55 15
66 -9 98 -72 96 -17 -1 -26 4 -25 14 1 8 -7 17 -16 19 -12 2 -18 -3 -19 -15z"/>
<path d="M869 1689 c-4 -28 -37 -604 -35 -607 3 -3 206 48 214 54 3 2 -168
546 -174 553 -2 2 -4 2 -5 0z"/>
<path d="M9475 1764 c-198 -12 -386 -23 -417 -23 l-58 -1 0 -414 0 -413 -31
-7 c-17 -3 -47 -6 -65 -6 -23 0 -34 -5 -34 -15 0 -12 11 -14 58 -9 l59 7 6
-33 c4 -18 7 -95 7 -171 l0 -139 28 0 c15 0 94 9 176 20 477 64 596 81 639 91
l47 11 1 106 c1 59 4 132 7 162 7 53 8 55 42 60 19 4 44 12 55 19 17 10 11 11
-39 6 l-59 -6 7 391 8 390 -39 -1 c-21 -1 -200 -12 -398 -25z m419 -144 c0
-80 -1 -249 -2 -376 l-2 -232 -25 -4 c-29 -6 -30 -5 -10 87 39 184 -6 386
-114 507 -26 29 -67 60 -109 80 -57 28 -77 33 -138 33 -184 -1 -354 -166 -414
-401 -24 -94 -27 -253 -5 -334 8 -30 13 -55 12 -56 -1 0 -14 -4 -29 -8 l-28
-6 0 394 c0 313 3 396 13 404 16 13 667 61 792 58 l60 -1 -1 -145z m-311 43
c63 -20 150 -100 187 -173 46 -90 63 -165 63 -270 0 -83 -20 -200 -37 -217 -7
-8 -309 -42 -318 -36 -15 8 -8 154 8 190 11 22 66 75 150 145 123 101 146 128
109 128 -8 0 -77 -59 -154 -131 l-140 -130 -30 15 c-35 18 -165 122 -200 160
-15 16 -35 26 -53 26 -36 0 -37 -22 0 -45 20 -13 208 -153 271 -201 6 -5 4
-155 -2 -161 -6 -5 -329 -44 -334 -40 -14 14 -33 140 -33 217 0 116 17 189 71
298 66 136 169 222 286 241 55 9 88 5 156 -16z m300 -820 c-3 -91 -10 -152
-17 -159 -6 -6 -150 -30 -321 -52 -537 -72 -495 -68 -506 -51 -5 8 -8 82 -6
164 l2 150 32 3 c30 3 34 -1 58 -49 34 -66 106 -138 170 -169 41 -21 65 -25
135 -25 74 0 93 4 145 29 84 41 171 132 219 229 34 69 41 77 66 77 l28 0 -5
-147z m-73 131 c0 -25 -76 -140 -125 -190 -139 -140 -306 -158 -452 -46 -34
25 -113 135 -113 157 0 12 75 23 273 42 l69 6 -8 -116 c-5 -85 -4 -117 5 -117
7 0 11 36 11 115 0 83 3 117 13 120 17 7 234 32 285 34 23 0 42 -2 42 -5z"/>
<path d="M8268 1673 l-57 -15 -39 -101 c-22 -56 -42 -111 -46 -123 -5 -15 12
-46 64 -122 39 -56 76 -102 84 -102 13 0 119 30 124 35 2 2 -31 49 -74 104
l-77 101 15 37 c9 21 29 72 44 113 16 41 31 78 32 82 5 10 0 9 -70 -9z"/>
<path d="M8028 1611 c-31 -9 -58 -18 -61 -21 -2 -3 5 -87 17 -188 18 -150 20
-187 9 -200 -16 -22 -16 -33 1 -26 8 3 16 -3 19 -15 5 -19 6 -19 66 -3 l60 16
-5 76 c-3 41 -10 98 -14 125 -5 28 -14 95 -21 150 -6 55 -12 100 -12 101 -1 0
-28 -7 -59 -15z"/>
<path d="M7663 1517 c-45 -12 -84 -25 -87 -28 -5 -5 41 -439 47 -445 1 -2 31
4 65 13 55 14 61 18 57 37 -10 44 -10 139 0 142 6 2 32 -27 58 -66 45 -66 49
-69 80 -64 90 16 116 36 83 63 -8 7 -33 37 -57 67 l-42 55 21 22 c43 46 53
107 26 163 -32 68 -104 79 -251 41z"/>
<path d="M7297 1434 c-65 -20 -121 -78 -141 -145 -20 -66 -20 -109 -1 -183 28
-106 74 -146 168 -146 144 0 240 120 224 281 -11 102 -49 168 -114 195 -40 17
-75 17 -136 -2z m97 -129 c14 -28 20 -62 20 -120 1 -86 -8 -110 -49 -125 -52
-20 -87 45 -89 163 -1 75 0 80 28 103 39 34 67 28 90 -21z"/>
<path d="M7026 1353 l-59 -16 8 -171 c4 -94 4 -168 0 -165 -3 4 -21 75 -40
159 -19 84 -36 155 -38 156 -1 2 -30 -4 -63 -12 l-61 -16 -7 -51 c-3 -29 -6
-106 -7 -172 l-1 -120 -31 152 c-18 83 -35 155 -39 158 -6 6 -118 -14 -118
-22 0 -15 104 -420 110 -426 7 -8 138 20 152 32 4 4 8 76 9 160 0 85 4 150 8
145 4 -5 22 -71 40 -146 18 -76 34 -138 35 -138 23 3 151 41 156 47 9 9 19
464 10 462 -3 -1 -31 -8 -64 -16z"/>
<path d="M6380 1187 c-85 -22 -157 -41 -159 -43 -2 -2 0 -24 4 -50 7 -50 5
-49 87 -29 l24 6 19 -171 c10 -94 21 -173 25 -175 7 -4 109 20 117 28 2 3 -4
81 -15 173 -11 93 -19 172 -16 175 2 4 24 12 49 18 l45 11 0 50 c0 34 -4 50
-12 49 -7 -1 -83 -20 -168 -42z"/>
<path d="M6060 1103 c-74 -19 -137 -36 -139 -39 -3 -2 6 -103 19 -224 19 -171
27 -220 38 -220 8 0 70 14 138 32 l124 32 0 41 c0 23 -2 44 -6 47 -3 3 -37 -3
-77 -13 -39 -10 -72 -17 -73 -16 -1 1 -4 21 -8 44 -7 46 -11 41 72 63 42 11
42 11 42 55 0 51 -3 52 -75 30 -27 -8 -50 -13 -51 -12 -1 1 -4 21 -7 43 l-5
42 58 12 c31 7 62 15 67 19 8 5 28 103 20 100 -1 0 -63 -16 -137 -36z"/>
<path d="M14790 1084 c-10 -11 -9 -14 6 -14 16 0 17 -2 4 -10 -21 -14 -30 -12
-30 5 0 19 -17 19 -50 0 -24 -14 -16 -20 19 -16 7 2 10 -2 7 -7 -10 -17 5 -42
24 -42 11 0 22 -5 26 -12 4 -7 3 -8 -4 -4 -7 4 -12 3 -12 -2 0 -5 -16 -17 -35
-28 l-35 -18 28 -23 c15 -13 20 -22 12 -21 -9 2 -15 -6 -16 -19 -1 -19 4 -23
27 -23 16 0 29 4 29 9 0 5 12 6 28 2 17 -5 26 -14 24 -24 -2 -11 11 -22 35
-33 44 -20 107 -30 83 -14 -11 8 -8 9 12 4 27 -6 28 -5 26 34 -1 38 -3 41 -37
48 -21 4 -29 9 -19 11 11 3 15 10 11 20 -5 14 -4 14 18 0 l24 -16 2 79 c2 49
-2 80 -8 80 -6 0 -7 -4 -4 -10 3 -5 1 -10 -5 -10 -6 0 -22 -12 -35 -26 -15
-16 -29 -23 -37 -18 -7 4 -3 -3 10 -15 15 -15 29 -20 45 -16 21 6 21 6 3 -9
-11 -9 -35 -16 -53 -16 -30 0 -33 2 -24 18 12 22 -3 42 -30 42 -14 0 -49 39
-49 55 0 10 19 5 34 -11 20 -19 42 -9 25 12 -6 8 -18 14 -25 14 -8 0 -14 6
-14 14 0 20 -27 27 -40 10z"/>
<path d="M5797 1034 c-27 -7 -51 -15 -54 -17 -5 -5 22 -212 34 -257 10 -42 -2
-20 -57 105 -29 66 -56 123 -59 127 -5 6 -148 -25 -155 -34 -2 -2 8 -103 22
-225 28 -244 23 -232 94 -211 l40 12 -6 76 c-4 42 -13 105 -20 140 -8 36 -13
66 -11 68 1 1 26 -53 55 -120 29 -68 56 -127 60 -132 11 -11 150 23 156 39 4
10 -43 437 -49 441 -1 0 -24 -5 -50 -12z"/>
<path d="M3944 558 c3 -35 13 -166 22 -293 8 -126 16 -230 17 -230 1 -1 14 -9
29 -18 23 -14 54 -17 179 -17 84 0 150 2 148 4 -2 2 -48 6 -103 9 -54 3 -103
10 -109 16 -18 18 -31 13 -16 -6 13 -15 12 -15 -10 -3 -23 12 -23 13 -5 23 10
6 67 11 126 11 105 1 108 2 108 24 0 22 -2 22 -130 22 -85 0 -130 4 -130 11 0
5 4 8 9 5 5 -4 11 -1 13 5 2 6 48 11 118 12 108 2 115 3 115 22 0 19 -7 20
-105 21 -144 1 -160 2 -160 15 0 5 5 7 10 4 6 -3 13 1 16 9 5 13 26 16 120 16
95 0 114 3 114 15 0 13 -22 15 -132 16 -73 1 -125 3 -115 6 11 3 16 11 13 19
-4 12 15 14 115 14 92 0 120 3 117 13 -3 8 -41 13 -132 15 -95 2 -126 6 -123
15 2 8 42 14 125 17 71 3 122 9 122 15 1 16 -69 25 -151 19 -53 -4 -79 -2 -84
6 -13 21 6 25 121 24 82 0 114 3 114 12 0 17 -34 24 -140 25 -57 1 -85 4 -70
8 14 4 58 6 98 4 39 -2 72 -1 72 2 0 15 -76 35 -137 36 -54 1 -62 2 -40 9 16
5 35 6 43 3 8 -3 14 0 14 5 0 6 -10 14 -22 17 -13 4 -58 24 -100 46 -42 21
-80 39 -84 39 -3 0 -4 -28 0 -62z"/>
<path d="M4360 405 c0 -25 4 -44 9 -41 5 4 7 -3 4 -14 -4 -14 0 -20 10 -20 8
0 18 -6 21 -12 3 -7 4 1 1 17 -2 17 -2 24 1 18 3 -7 12 -13 21 -13 8 0 13 -6
10 -12 -2 -7 -1 -20 4 -28 4 -9 11 -43 15 -75 24 -207 23 -204 19 -85 -3 63
-5 150 -5 192 l0 78 -33 14 c-78 32 -77 32 -77 -19z"/>
<path d="M4484 323 c3 -27 8 -88 11 -138 3 -49 8 -111 11 -137 l6 -48 236 0
c129 0 232 3 229 7 -7 6 -44 8 -272 11 -86 2 -105 5 -105 17 0 8 5 15 11 15 5
0 7 -4 4 -10 -3 -5 -2 -10 3 -10 6 0 13 7 16 16 5 13 23 14 128 10 68 -3 142
-8 164 -11 23 -4 44 -2 48 3 3 5 3 32 -1 59 -5 49 -7 51 -57 73 -160 70 -209
88 -223 83 -11 -4 -14 -2 -9 5 4 8 -7 18 -31 28 -21 10 -63 30 -94 46 -78 39
-82 37 -75 -19z"/>
<path d="M5037 83 c3 -43 8 -80 10 -83 2 -2 17 3 33 12 24 14 29 14 34 2 3 -8
15 -14 26 -14 18 0 20 6 20 56 l0 55 -55 25 c-31 13 -60 24 -64 24 -5 0 -7
-35 -4 -77z"/>
</g>
</svg>
